<mxfile host="app.diagrams.net" modified="2021-01-11T08:06:43.464Z" agent="5.0 (Macintosh; Intel Mac OS X 10_14_6) AppleWebKit/605.1.15 (KHTML, like Gecko) Version/14.0.1 Safari/605.1.15" etag="TfB08ZRqOkoN7sD-u0A3" version="14.1.9" type="github">
  <diagram id="iG2hipOZRml14pzsT9Tu" name="Page-1">
    <mxGraphModel dx="919" dy="729" grid="1" gridSize="10" guides="1" tooltips="1" connect="1" arrows="1" fold="1" page="1" pageScale="1" pageWidth="827" pageHeight="1169" math="0" shadow="0">
      <root>
        <mxCell id="0" />
        <mxCell id="1" parent="0" />
        <mxCell id="XfwasxfAa33o44CqomPV-23" value="" style="endArrow=classic;html=1;" edge="1" parent="1">
          <mxGeometry width="50" height="50" relative="1" as="geometry">
            <mxPoint x="210" y="250" as="sourcePoint" />
            <mxPoint x="260" y="200" as="targetPoint" />
            <Array as="points">
              <mxPoint x="100" y="180" />
            </Array>
          </mxGeometry>
        </mxCell>
        <mxCell id="XfwasxfAa33o44CqomPV-31" value="" style="verticalLabelPosition=bottom;verticalAlign=top;html=1;shape=mxgraph.basic.6_point_star" vertex="1" parent="1">
          <mxGeometry x="560" y="150" width="100" height="90" as="geometry" />
        </mxCell>
        <mxCell id="XfwasxfAa33o44CqomPV-36" value="" style="group" vertex="1" connectable="0" parent="1">
          <mxGeometry x="240" y="360" width="119.5" height="120" as="geometry" />
        </mxCell>
        <mxCell id="XfwasxfAa33o44CqomPV-20" value="" style="endArrow=classic;html=1;" edge="1" parent="XfwasxfAa33o44CqomPV-36">
          <mxGeometry width="50" height="50" relative="1" as="geometry">
            <mxPoint x="39" y="80" as="sourcePoint" />
            <mxPoint y="120" as="targetPoint" />
          </mxGeometry>
        </mxCell>
        <mxCell id="XfwasxfAa33o44CqomPV-22" value="" style="endArrow=classic;html=1;" edge="1" parent="XfwasxfAa33o44CqomPV-36">
          <mxGeometry width="50" height="50" relative="1" as="geometry">
            <mxPoint x="39.5" y="80" as="sourcePoint" />
            <mxPoint x="119.5" y="80" as="targetPoint" />
          </mxGeometry>
        </mxCell>
        <mxCell id="XfwasxfAa33o44CqomPV-24" value="" style="endArrow=classic;html=1;" edge="1" parent="XfwasxfAa33o44CqomPV-36">
          <mxGeometry width="50" height="50" relative="1" as="geometry">
            <mxPoint x="39.5" y="80" as="sourcePoint" />
            <mxPoint x="39.5" as="targetPoint" />
          </mxGeometry>
        </mxCell>
        <mxCell id="XfwasxfAa33o44CqomPV-33" value="" style="verticalLabelPosition=bottom;verticalAlign=top;html=1;shape=mxgraph.basic.6_point_star" vertex="1" parent="XfwasxfAa33o44CqomPV-36">
          <mxGeometry x="8.5" y="60" width="10" height="10" as="geometry" />
        </mxCell>
        <mxCell id="XfwasxfAa33o44CqomPV-35" value="" style="ellipse;whiteSpace=wrap;html=1;aspect=fixed;" vertex="1" parent="XfwasxfAa33o44CqomPV-36">
          <mxGeometry x="59.5" y="40" width="10" height="10" as="geometry" />
        </mxCell>
        <mxCell id="XfwasxfAa33o44CqomPV-43" value="" style="group" vertex="1" connectable="0" parent="1">
          <mxGeometry x="380" y="360" width="119.5" height="120" as="geometry" />
        </mxCell>
        <mxCell id="XfwasxfAa33o44CqomPV-44" value="" style="endArrow=classic;html=1;" edge="1" parent="XfwasxfAa33o44CqomPV-43">
          <mxGeometry width="50" height="50" relative="1" as="geometry">
            <mxPoint x="39" y="80" as="sourcePoint" />
            <mxPoint y="120" as="targetPoint" />
          </mxGeometry>
        </mxCell>
        <mxCell id="XfwasxfAa33o44CqomPV-45" value="" style="endArrow=classic;html=1;" edge="1" parent="XfwasxfAa33o44CqomPV-43">
          <mxGeometry width="50" height="50" relative="1" as="geometry">
            <mxPoint x="39.5" y="80" as="sourcePoint" />
            <mxPoint x="119.5" y="80" as="targetPoint" />
          </mxGeometry>
        </mxCell>
        <mxCell id="XfwasxfAa33o44CqomPV-46" value="" style="endArrow=classic;html=1;" edge="1" parent="XfwasxfAa33o44CqomPV-43">
          <mxGeometry width="50" height="50" relative="1" as="geometry">
            <mxPoint x="39.5" y="80" as="sourcePoint" />
            <mxPoint x="39.5" as="targetPoint" />
          </mxGeometry>
        </mxCell>
        <mxCell id="XfwasxfAa33o44CqomPV-47" value="" style="verticalLabelPosition=bottom;verticalAlign=top;html=1;shape=mxgraph.basic.6_point_star" vertex="1" parent="XfwasxfAa33o44CqomPV-43">
          <mxGeometry x="8.5" y="60" width="10" height="10" as="geometry" />
        </mxCell>
        <mxCell id="XfwasxfAa33o44CqomPV-48" value="" style="ellipse;whiteSpace=wrap;html=1;aspect=fixed;" vertex="1" parent="XfwasxfAa33o44CqomPV-43">
          <mxGeometry x="59.5" y="40" width="10" height="10" as="geometry" />
        </mxCell>
        <mxCell id="XfwasxfAa33o44CqomPV-49" value="" style="group" vertex="1" connectable="0" parent="1">
          <mxGeometry x="240" y="510" width="119.5" height="120" as="geometry" />
        </mxCell>
        <mxCell id="XfwasxfAa33o44CqomPV-50" value="" style="endArrow=classic;html=1;" edge="1" parent="XfwasxfAa33o44CqomPV-49">
          <mxGeometry width="50" height="50" relative="1" as="geometry">
            <mxPoint x="39" y="80" as="sourcePoint" />
            <mxPoint y="120" as="targetPoint" />
          </mxGeometry>
        </mxCell>
        <mxCell id="XfwasxfAa33o44CqomPV-51" value="" style="endArrow=classic;html=1;" edge="1" parent="XfwasxfAa33o44CqomPV-49">
          <mxGeometry width="50" height="50" relative="1" as="geometry">
            <mxPoint x="39.5" y="80" as="sourcePoint" />
            <mxPoint x="119.5" y="80" as="targetPoint" />
          </mxGeometry>
        </mxCell>
        <mxCell id="XfwasxfAa33o44CqomPV-52" value="" style="endArrow=classic;html=1;" edge="1" parent="XfwasxfAa33o44CqomPV-49">
          <mxGeometry width="50" height="50" relative="1" as="geometry">
            <mxPoint x="39.5" y="80" as="sourcePoint" />
            <mxPoint x="39.5" as="targetPoint" />
          </mxGeometry>
        </mxCell>
        <mxCell id="XfwasxfAa33o44CqomPV-53" value="" style="verticalLabelPosition=bottom;verticalAlign=top;html=1;shape=mxgraph.basic.6_point_star" vertex="1" parent="XfwasxfAa33o44CqomPV-49">
          <mxGeometry x="8.5" y="60" width="10" height="10" as="geometry" />
        </mxCell>
        <mxCell id="XfwasxfAa33o44CqomPV-54" value="" style="ellipse;whiteSpace=wrap;html=1;aspect=fixed;" vertex="1" parent="XfwasxfAa33o44CqomPV-49">
          <mxGeometry x="59.5" y="40" width="10" height="10" as="geometry" />
        </mxCell>
        <mxCell id="XfwasxfAa33o44CqomPV-55" value="" style="group" vertex="1" connectable="0" parent="1">
          <mxGeometry x="380" y="510" width="119.5" height="120" as="geometry" />
        </mxCell>
        <mxCell id="XfwasxfAa33o44CqomPV-56" value="" style="endArrow=classic;html=1;" edge="1" parent="XfwasxfAa33o44CqomPV-55">
          <mxGeometry width="50" height="50" relative="1" as="geometry">
            <mxPoint x="39" y="80" as="sourcePoint" />
            <mxPoint y="120" as="targetPoint" />
          </mxGeometry>
        </mxCell>
        <mxCell id="XfwasxfAa33o44CqomPV-57" value="" style="endArrow=classic;html=1;" edge="1" parent="XfwasxfAa33o44CqomPV-55">
          <mxGeometry width="50" height="50" relative="1" as="geometry">
            <mxPoint x="39.5" y="80" as="sourcePoint" />
            <mxPoint x="119.5" y="80" as="targetPoint" />
          </mxGeometry>
        </mxCell>
        <mxCell id="XfwasxfAa33o44CqomPV-58" value="" style="endArrow=classic;html=1;" edge="1" parent="XfwasxfAa33o44CqomPV-55">
          <mxGeometry width="50" height="50" relative="1" as="geometry">
            <mxPoint x="39.5" y="80" as="sourcePoint" />
            <mxPoint x="39.5" as="targetPoint" />
          </mxGeometry>
        </mxCell>
        <mxCell id="XfwasxfAa33o44CqomPV-59" value="" style="verticalLabelPosition=bottom;verticalAlign=top;html=1;shape=mxgraph.basic.6_point_star" vertex="1" parent="XfwasxfAa33o44CqomPV-55">
          <mxGeometry x="8.5" y="60" width="10" height="10" as="geometry" />
        </mxCell>
        <mxCell id="XfwasxfAa33o44CqomPV-60" value="" style="ellipse;whiteSpace=wrap;html=1;aspect=fixed;" vertex="1" parent="XfwasxfAa33o44CqomPV-55">
          <mxGeometry x="59.5" y="40" width="10" height="10" as="geometry" />
        </mxCell>
        <mxCell id="XfwasxfAa33o44CqomPV-61" value="fuck" style="text;html=1;strokeColor=none;fillColor=none;align=center;verticalAlign=middle;whiteSpace=wrap;rounded=0;" vertex="1" parent="1">
          <mxGeometry x="279.75" y="480" width="40" height="20" as="geometry" />
        </mxCell>
        <mxCell id="XfwasxfAa33o44CqomPV-62" value="fuck" style="text;html=1;strokeColor=none;fillColor=none;align=center;verticalAlign=middle;whiteSpace=wrap;rounded=0;" vertex="1" parent="1">
          <mxGeometry x="419.75" y="640" width="40" height="20" as="geometry" />
        </mxCell>
        <mxCell id="XfwasxfAa33o44CqomPV-63" value="fuck" style="text;html=1;strokeColor=none;fillColor=none;align=center;verticalAlign=middle;whiteSpace=wrap;rounded=0;" vertex="1" parent="1">
          <mxGeometry x="279.75" y="640" width="40" height="20" as="geometry" />
        </mxCell>
        <mxCell id="XfwasxfAa33o44CqomPV-64" value="fuck" style="text;html=1;strokeColor=none;fillColor=none;align=center;verticalAlign=middle;whiteSpace=wrap;rounded=0;" vertex="1" parent="1">
          <mxGeometry x="419.75" y="480" width="40" height="20" as="geometry" />
        </mxCell>
      </root>
    </mxGraphModel>
  </diagram>
</mxfile>
